<svg width="19" height="27" viewBox="0 0 19 27" fill="none" xmlns="http://www.w3.org/2000/svg">
<path d="M3.03359 19.16C3.80693 19.9067 4.64693 20.52 5.55359 21C6.48693 21.48 7.50026 21.72 8.59359 21.72C9.84693 21.72 10.8469 21.4667 11.5936 20.96C12.3403 20.4267 12.7136 19.68 12.7136 18.72C12.7136 18.16 12.6069 17.6533 12.3936 17.2C12.2069 16.7467 11.8603 16.3733 11.3536 16.08C10.8469 15.76 10.1536 15.52 9.27359 15.36C8.39359 15.1733 7.26026 15.08 5.87359 15.08V10.92C7.02026 10.92 7.96693 10.84 8.71359 10.68C9.48693 10.52 10.1003 10.2933 10.5536 10C11.0336 9.68 11.3669 9.32 11.5536 8.92C11.7669 8.49333 11.8736 8.02667 11.8736 7.52C11.8736 6.64 11.6069 5.96 11.0736 5.48C10.5403 4.97333 9.76693 4.72 8.75359 4.72C7.84693 4.72 7.02026 4.92 6.27359 5.32C5.55359 5.72 4.79359 6.26667 3.99359 6.96L1.03359 3.36C2.20693 2.34667 3.43359 1.56 4.71359 1C6.02026 0.413333 7.46026 0.119999 9.03359 0.119999C10.3403 0.119999 11.5269 0.279999 12.5936 0.599998C13.6869 0.893332 14.6069 1.34667 15.3536 1.96C16.1269 2.54667 16.7269 3.26666 17.1536 4.12C17.5803 4.97333 17.7936 5.96 17.7936 7.08C17.7936 8.41333 17.4203 9.54667 16.6736 10.48C15.9536 11.3867 14.9136 12.1333 13.5536 12.72V12.88C15.0203 13.3067 16.2203 14.04 17.1536 15.08C18.1136 16.0933 18.5936 17.4267 18.5936 19.08C18.5936 20.2533 18.3403 21.3067 17.8336 22.24C17.3269 23.1467 16.6469 23.92 15.7936 24.56C14.9403 25.1733 13.9403 25.6533 12.7936 26C11.6469 26.32 10.4336 26.48 9.15359 26.48C7.07359 26.48 5.31359 26.16 3.87359 25.52C2.43359 24.8533 1.24693 23.9733 0.313594 22.88L3.03359 19.16Z" fill="#EEEEEE"/>
</svg>
