<svg width="19" height="27" viewBox="0 0 19 27" fill="none" xmlns="http://www.w3.org/2000/svg">
<path d="M2.99359 19.2C3.76693 19.8933 4.59359 20.4933 5.47359 21C6.38026 21.48 7.38026 21.72 8.47359 21.72C9.78026 21.72 10.8203 21.3867 11.5936 20.72C12.3669 20.0533 12.7536 19.0667 12.7536 17.76C12.7536 16.48 12.3803 15.5067 11.6336 14.84C10.9136 14.1733 9.95359 13.84 8.75359 13.84C8.38026 13.84 8.04693 13.8667 7.75359 13.92C7.46026 13.9467 7.16693 14.0133 6.87359 14.12C6.60693 14.2267 6.31359 14.36 5.99359 14.52C5.70026 14.68 5.36693 14.88 4.99359 15.12L2.35359 13.44L3.07359 0.599998H17.4736V5.56H8.15359L7.71359 10.32C8.19359 10.1067 8.64693 9.96 9.07359 9.88C9.52693 9.77333 10.0203 9.72 10.5536 9.72C11.6469 9.72 12.6736 9.88 13.6336 10.2C14.6203 10.52 15.4869 11 16.2336 11.64C16.9803 12.28 17.5669 13.0933 17.9936 14.08C18.4203 15.0667 18.6336 16.24 18.6336 17.6C18.6336 19.0133 18.3803 20.2667 17.8736 21.36C17.3669 22.4533 16.6869 23.3867 15.8336 24.16C14.9803 24.9067 13.9803 25.48 12.8336 25.88C11.7136 26.28 10.5403 26.48 9.31359 26.48C7.23359 26.48 5.47359 26.1467 4.03359 25.48C2.59359 24.7867 1.36693 23.9333 0.353594 22.92L2.99359 19.2Z" fill="#EEEEEE"/>
</svg>
