<svg width="22" height="22" viewBox="0 0 22 22" fill="none" xmlns="http://www.w3.org/2000/svg">
<circle cx="11" cy="11" r="11" fill="#9FCA6F"/>
<path d="M15.5194 6C15.1234 6 14.7519 6.16209 14.4717 6.45699L8.98943 12.2365L7.52826 10.6986C7.24871 10.4044 6.87662 10.2416 6.48123 10.2416C6.08585 10.2416 5.71376 10.4037 5.43356 10.6986C5.15401 10.9928 5 11.3845 5 11.8006C5 12.2167 5.15401 12.6083 5.43356 12.9025L7.94241 15.543C8.22196 15.8372 8.59405 16 8.99008 16C9.38611 16 9.75755 15.8379 10.0377 15.543L16.5671 8.66158C17.1443 8.0534 17.1443 7.0645 16.5671 6.45699C16.2875 6.16277 15.9154 6.00068 15.5194 6.00068V6Z" fill="#EEEEEE"/>
</svg>
