<svg width="21" height="20" viewBox="0 0 21 20" fill="none" xmlns="http://www.w3.org/2000/svg">
<g filter="url(#filter0_d_506_536)">
<rect x="2" width="16.6512" height="16" rx="8" fill="white"/>
<rect x="2.5" y="0.5" width="15.6512" height="15" rx="7.5" stroke="#9FCA6F"/>
</g>
<path d="M10.3233 5.172C10.0273 5.172 9.78333 5.088 9.59133 4.92C9.39933 4.744 9.30333 4.52 9.30333 4.248C9.30333 3.976 9.39933 3.756 9.59133 3.588C9.78333 3.42 10.0273 3.336 10.3233 3.336C10.6273 3.336 10.8713 3.42 11.0553 3.588C11.2473 3.756 11.3433 3.976 11.3433 4.248C11.3433 4.52 11.2473 4.744 11.0553 4.92C10.8713 5.088 10.6273 5.172 10.3233 5.172ZM9.44733 6.048H11.2113V12H9.44733V6.048Z" fill="black"/>
<defs>
<filter id="filter0_d_506_536" x="0" y="0" width="20.6504" height="20" filterUnits="userSpaceOnUse" color-interpolation-filters="sRGB">
<feFlood flood-opacity="0" result="BackgroundImageFix"/>
<feColorMatrix in="SourceAlpha" type="matrix" values="0 0 0 0 0 0 0 0 0 0 0 0 0 0 0 0 0 0 127 0" result="hardAlpha"/>
<feOffset dy="2"/>
<feGaussianBlur stdDeviation="1"/>
<feComposite in2="hardAlpha" operator="out"/>
<feColorMatrix type="matrix" values="0 0 0 0 0 0 0 0 0 0 0 0 0 0 0 0 0 0 0.15 0"/>
<feBlend mode="normal" in2="BackgroundImageFix" result="effect1_dropShadow_506_536"/>
<feBlend mode="normal" in="SourceGraphic" in2="effect1_dropShadow_506_536" result="shape"/>
</filter>
</defs>
</svg>
