<svg width="19" height="26" viewBox="0 0 19 26" fill="none" xmlns="http://www.w3.org/2000/svg">
<path d="M0.913594 22.64C2.54026 21.12 4.02026 19.7067 5.35359 18.4C6.71359 17.0667 7.87359 15.8267 8.83359 14.68C9.82026 13.5067 10.5803 12.4267 11.1136 11.44C11.6736 10.4267 11.9536 9.46667 11.9536 8.56C11.9536 7.30667 11.6336 6.36 10.9936 5.72C10.3536 5.05333 9.47359 4.72 8.35359 4.72C7.42026 4.72 6.59359 4.98667 5.87359 5.52C5.15359 6.02667 4.47359 6.62667 3.83359 7.32L0.633594 4.16C1.88693 2.82667 3.16693 1.82667 4.47359 1.16C5.78026 0.466666 7.34026 0.119999 9.15359 0.119999C10.4069 0.119999 11.5403 0.319999 12.5536 0.719999C13.5936 1.09333 14.4869 1.64 15.2336 2.36C15.9803 3.05333 16.5536 3.89333 16.9536 4.88C17.3536 5.86667 17.5536 6.97333 17.5536 8.2C17.5536 9.26667 17.3269 10.36 16.8736 11.48C16.4203 12.5733 15.8069 13.68 15.0336 14.8C14.2869 15.8933 13.4203 17 12.4336 18.12C11.4736 19.2133 10.4736 20.2933 9.43359 21.36C10.0736 21.28 10.7803 21.2133 11.5536 21.16C12.3536 21.08 13.0603 21.04 13.6736 21.04H18.7936V26H0.913594V22.64Z" fill="#C4C4C4"/>
</svg>
